<svg width="90" height="54" viewBox="0 0 90 54" fill="none" xmlns="http://www.w3.org/2000/svg">
<path d="M25.3582 19.5376C25.3582 20.6513 25.4904 21.5456 25.6957 22.2037C25.9292 22.8618 26.2385 23.5818 26.6491 24.358C26.7876 24.5615 26.8638 24.8009 26.8685 25.047C26.8685 25.3536 26.6772 25.6489 26.2976 25.9554L24.4077 27.2013C24.1835 27.3713 23.9126 27.4685 23.6314 27.4798C23.3249 27.4798 23.0296 27.3335 22.7371 27.0551C22.3279 26.6256 21.9649 26.1543 21.6543 25.6489C21.3175 25.0788 21.0097 24.4922 20.7319 23.8912C18.3892 26.6445 15.4587 28.0225 11.9291 28.0225C9.40924 28.0225 7.40401 27.3054 5.93876 25.8683C4.47352 24.4171 3.72824 22.5131 3.72824 20.1113C3.72824 17.5774 4.62257 15.4962 6.45343 13.9438C8.28429 12.3913 10.7001 11.6151 13.7909 11.6151C14.8006 11.6151 15.8552 11.7023 16.9549 11.8486C18.0686 11.9948 19.2104 12.2451 20.3972 12.5066V10.3242C20.3972 8.05465 19.9275 6.45722 18.991 5.53476C18.0376 4.6123 16.4289 4.15669 14.1143 4.15669C13.0738 4.15669 11.991 4.27481 10.8773 4.53637C9.78042 4.80319 8.70347 5.1462 7.65432 5.56289C7.30277 5.72319 6.95122 5.84131 6.59967 5.95943C6.44661 6.00487 6.28918 6.03409 6.13001 6.04661C5.70534 6.04661 5.50003 5.74006 5.50003 5.11009V3.64484C5.50003 3.17518 5.55909 2.80957 5.70534 2.60426C5.92514 2.32612 6.21277 2.10918 6.54061 1.97429C7.73756 1.37644 9.00183 0.924171 10.3064 0.627161C11.8319 0.233681 13.4024 0.041744 14.9777 0.0562475C18.5523 0.0562475 21.1453 0.860587 22.8299 2.48895C24.4695 4.10045 25.3048 6.54722 25.3048 9.84332V19.5404L25.3582 19.5376ZM13.2144 24.0936C14.1959 24.0936 15.2224 23.9165 16.2911 23.5509C17.39 23.1792 18.3703 22.5221 19.1316 21.6469C19.6154 21.076 19.981 20.446 20.1582 19.7288C20.3353 19.0117 20.4506 18.1314 20.4506 17.1218V15.8618C19.5434 15.6385 18.6242 15.4676 17.6973 15.35C16.7646 15.2312 15.8252 15.172 14.8849 15.1728C12.8769 15.1728 11.4145 15.5693 10.4329 16.3737C9.43736 17.178 8.9677 18.3226 8.9677 19.816C8.9677 21.2222 9.31924 22.2628 10.0673 22.9799C10.7845 23.728 11.8391 24.0936 13.2172 24.0936H13.2144ZM37.2518 27.3307C36.709 27.3307 36.3434 27.2435 36.11 27.0241C35.8765 26.847 35.6572 26.4223 35.48 25.8683L28.449 2.72519C28.3115 2.3374 28.2227 1.93401 28.1847 1.52431C28.1847 1.04058 28.4181 0.776217 28.8878 0.776217H31.8323C32.4032 0.776217 32.7857 0.863401 32.9882 1.0687C33.2385 1.24588 33.4129 1.67055 33.5901 2.24147L38.6299 22.0603L43.3012 2.24147C43.4475 1.63962 43.6246 1.24588 43.8581 1.0687C44.2182 0.848612 44.638 0.746365 45.0589 0.776217H47.4467C48.0176 0.776217 48.4141 0.863401 48.6475 1.0687C48.881 1.24588 49.1003 1.67055 49.2185 2.24147L53.9489 22.2937L59.1208 2.24147C59.3121 1.63962 59.5174 1.24588 59.7227 1.0687C60.0725 0.848846 60.4834 0.746377 60.8955 0.776217H63.6797C64.1634 0.776217 64.4278 1.00964 64.4278 1.52431C64.4278 1.67055 64.3997 1.8168 64.3687 2.00804C64.32 2.2624 64.2514 2.51254 64.1634 2.75613L56.9412 25.8851C56.7641 26.487 56.5616 26.8807 56.3113 27.0579C55.9779 27.2771 55.5814 27.38 55.1835 27.3504H52.6046C52.0336 27.3504 51.6512 27.2632 51.4037 27.0579C51.1702 26.8526 50.9649 26.456 50.8468 25.857L46.2036 6.55003L41.5885 25.8261C41.4422 26.4279 41.265 26.8217 41.0176 27.027C40.7841 27.2323 40.3595 27.3194 39.8167 27.3194L37.2518 27.3307ZM75.7026 28.1378C74.1502 28.1378 72.5978 27.9466 71.1044 27.5951C69.611 27.2435 68.4383 26.847 67.662 26.3942C67.1783 26.1298 66.8577 25.8373 66.7396 25.5589C66.6174 25.2972 66.5522 25.0125 66.5483 24.7236V23.1993C66.5483 22.5693 66.7986 22.2628 67.2374 22.2628C67.4145 22.2628 67.603 22.2909 67.7802 22.35C67.9573 22.4231 68.2329 22.5412 68.5282 22.6565C69.5548 23.1093 70.6516 23.4609 71.8244 23.6971C73.0252 23.9474 74.1839 24.0627 75.3848 24.0627C77.2747 24.0627 78.74 23.7252 79.7496 23.0671C80.7452 22.4653 81.3471 21.3825 81.3161 20.2266C81.3276 19.4507 81.0396 18.7003 80.5118 18.1314C79.969 17.5746 78.9453 17.0627 77.48 16.579L73.1434 15.2318C70.961 14.5428 69.3354 13.5332 68.3539 12.186C67.3872 10.9407 66.8575 9.41173 66.8464 7.83529C66.8464 6.57534 67.1249 5.4757 67.6677 4.51105C68.2104 3.55766 68.9276 2.72519 69.8219 2.06429C70.751 1.35773 71.8041 0.831198 72.9268 0.511852C74.1277 0.146243 75.3876 0 76.7066 0C77.3647 0 78.0538 0.0281233 78.7147 0.118119C79.4037 0.205303 80.0337 0.323423 80.6637 0.455605C81.2486 0.601848 81.8195 0.748093 82.3623 0.925273C82.9051 1.10245 83.3298 1.29088 83.6223 1.46806C83.9729 1.64695 84.2786 1.90267 84.5166 2.21615C84.7162 2.50843 84.8141 2.8583 84.795 3.21174V4.61792C84.795 5.2479 84.5447 5.57132 84.106 5.57132C83.706 5.53037 83.318 5.41091 82.9642 5.21977C81.1577 4.41679 79.198 4.01661 77.2213 4.04701C75.5086 4.04701 74.1586 4.31138 73.2362 4.88229C72.2996 5.4532 71.83 6.3166 71.83 7.54842C71.83 8.3837 72.1225 9.10086 72.7243 9.67177C73.3262 10.2427 74.4371 10.8136 76.0204 11.3283L80.2671 12.6613C82.4214 13.3504 83.9879 14.3178 84.9104 15.5468C85.8328 16.7618 86.2884 18.168 86.2884 19.7373C86.2884 21.0113 86.01 22.184 85.5122 23.2078C84.9728 24.2271 84.23 25.1249 83.3298 25.8458C82.3933 26.5939 81.2936 27.1198 80.0056 27.5163C78.6146 27.94 77.1679 28.1523 75.7139 28.1463L75.7026 28.1378ZM81.3696 42.6807C71.5122 49.9619 57.214 53.812 44.9099 53.812C27.67 53.812 12.1288 47.4392 0.395567 36.8365C-0.526893 36.0013 0.308383 34.8594 1.42209 35.5316C14.1059 42.886 29.7652 47.352 45.9505 47.352C56.8766 47.352 68.8742 45.0656 79.9324 40.4083C81.5721 39.6461 82.9782 41.477 81.3668 42.6778L81.3696 42.6807ZM85.4728 38.0093C84.2129 36.3978 77.1369 37.2331 73.9449 37.6296C72.9915 37.7477 72.8312 36.8984 73.7115 36.2684C79.3362 32.3283 88.5777 33.4561 89.6633 34.7751C90.732 36.1363 89.3567 45.3805 84.0976 49.8044C83.2932 50.4934 82.5001 50.1419 82.8658 49.2335C84.0666 46.2749 86.7328 39.6095 85.4728 38.0121V38.0093Z" fill="white"/>
</svg>
