<svg width="90" height="62" viewBox="0 0 90 62" fill="none" xmlns="http://www.w3.org/2000/svg">
<path d="M61.5225 6.19598C61.0838 6.19598 60.7913 6.25504 60.496 6.32817V6.37317H60.5409C60.7463 6.75287 61.0838 7.04819 61.3454 7.39976C61.5507 7.79634 61.7251 8.20417 61.9163 8.60074L61.9754 8.54168C62.3269 8.29136 62.5041 7.89759 62.5041 7.2957C62.3579 7.11851 62.3269 6.93006 62.1976 6.76693C62.0513 6.51661 61.7279 6.38723 61.5225 6.19598ZM21.6344 55.6778H18.1637C18.0586 50.1535 17.7217 44.6359 17.154 39.1398H17.1258L11.8382 55.6778H9.18591L3.94044 39.1398H3.89543C3.48779 44.644 3.24393 50.1591 3.16416 55.6778H0C0.171332 48.7425 0.684785 41.8198 1.53849 34.935H5.84456L10.8538 50.1708H10.8819L15.9361 34.935H20.0369C20.9453 42.4952 21.4882 49.4086 21.6485 55.6778H21.6344ZM36.693 40.3717C35.2867 48.0473 33.4107 53.6303 31.1128 57.101C29.2959 59.7814 27.3187 61.1286 25.1642 61.1286C24.5933 61.1286 23.8901 60.9514 23.0407 60.5999V58.7548C23.4654 58.8139 23.9492 58.8561 24.492 58.8561C25.5017 58.8561 26.3089 58.5635 26.9249 58.0207C27.6562 57.3457 28.0246 56.5863 28.0246 55.751C28.0246 55.1659 27.7462 53.9931 27.1612 52.2071L23.367 40.3717H26.7815L29.5069 49.2201C30.1228 51.2424 30.3872 52.6346 30.2691 53.439C31.7766 49.4536 32.8173 45.0884 33.4051 40.3717H36.693ZM82.9235 55.6778H73.0513V34.935H76.3758V53.1296H82.9235V55.6778ZM70.4722 56.1785L66.664 54.3025C67.0015 54.024 67.3221 53.7175 67.6174 53.3659C69.2431 51.4758 70.0503 48.6492 70.0503 44.9281C70.0503 38.057 67.3559 34.6312 61.9641 34.6312C59.3259 34.6312 57.2615 35.4947 55.7821 37.2385C54.1704 39.1426 53.3492 41.9552 53.3492 45.6622C53.3492 49.3101 54.0664 51.9765 55.5036 53.6893C56.8227 55.2138 58.8 55.99 61.4522 55.99C62.4338 55.99 63.3423 55.8719 64.1636 55.6244L69.1306 58.5242L70.4919 56.1813L70.4722 56.1785ZM58.1249 51.518C57.2755 50.1708 56.8649 48.0023 56.8649 45.0125C56.8649 39.7839 58.4484 37.1766 61.6266 37.1766C63.2832 37.1766 64.5123 37.8067 65.2886 39.0526C66.1239 40.4139 66.5486 42.5543 66.5486 45.5131C66.5486 50.7727 64.9511 53.425 61.7869 53.425C60.1163 53.425 58.9012 52.7949 58.1109 51.549L58.1249 51.518ZM51.9119 49.9373C51.9119 51.6952 51.2678 53.1465 49.9628 54.2575C48.6746 55.3853 46.959 55.9563 44.7764 55.9563C42.7401 55.9563 40.791 55.3122 38.8728 54.0212L39.7672 52.2352C41.4069 53.0565 42.8863 53.4671 44.2364 53.4671C45.4824 53.4671 46.464 53.1887 47.1671 52.6459C47.8702 52.089 48.2949 51.3127 48.2949 50.3311C48.2949 49.0992 47.4315 48.0445 45.8621 47.1669C44.4108 46.3625 41.4969 44.7059 41.4969 44.7059C39.9134 43.55 39.1372 42.318 39.1372 40.2817C39.1372 38.597 39.7222 37.2498 40.895 36.2232C42.0819 35.1684 43.5895 34.6566 45.4655 34.6566C47.3319 34.6403 49.1616 35.1755 50.725 36.195L49.9206 37.981C48.6639 37.4276 47.3083 37.1339 45.9352 37.1176C44.8664 37.1176 44.0451 37.3819 43.4742 37.8938C42.9032 38.4057 42.5516 39.0498 42.5516 39.857C42.5516 41.0889 43.432 42.1437 45.0408 43.0493C46.5202 43.8537 49.4931 45.5553 49.4931 45.5553C51.1188 46.6972 51.926 47.9292 51.926 49.9345L51.9119 49.9373ZM87.0862 27.9795C85.078 27.9345 83.5254 28.1398 82.2232 28.6967C81.8576 28.8429 81.2557 28.8429 81.1966 29.3126C81.4019 29.518 81.43 29.8414 81.6072 30.117C81.9138 30.6149 82.4285 31.2899 82.9123 31.6415C83.441 32.0521 83.967 32.4627 84.5098 32.8143C85.4914 33.4162 86.5911 33.7678 87.5559 34.3669C88.0987 34.7184 88.6556 35.1713 89.1956 35.5397C89.474 35.731 89.6484 36.0685 90 36.1838V36.1107C89.8228 35.8913 89.7806 35.5678 89.6034 35.3063C89.3531 35.0559 89.1056 34.8366 88.8553 34.5891C88.1218 33.6152 87.2423 32.7604 86.248 32.0549C85.4436 31.5121 83.6857 30.7499 83.3623 29.8273L83.3173 29.7683C83.8601 29.7233 84.5042 29.518 85.0302 29.3717C85.8796 29.1523 86.6699 29.1945 87.5502 28.9751C87.9541 28.8703 88.3546 28.7531 88.7512 28.6236V28.4042C88.2984 27.9513 87.9609 27.3354 87.4912 26.9107C86.1969 25.7781 84.8154 24.7493 83.3595 23.8337C82.5691 23.3218 81.5735 22.9984 80.7381 22.5737C80.4456 22.4274 79.9337 22.3543 79.7706 22.104C79.3178 21.5471 79.0534 20.8299 78.73 20.1689C77.9942 18.739 77.3103 17.283 76.6796 15.8038C76.2268 14.8222 75.9624 13.8547 75.4055 12.9462C72.8263 8.68231 70.0138 6.10598 65.7077 3.57183C64.7851 3.04307 63.6714 2.82368 62.4985 2.54524C61.8685 2.51711 61.2525 2.47211 60.6225 2.44399C60.2119 2.26679 59.8181 1.7999 59.4665 1.56365C58.0321 0.655179 54.3392 -1.29394 53.2985 1.2852C52.6235 2.92494 54.2942 4.52249 54.882 5.34376C55.3067 5.92878 55.8496 6.57568 56.1561 7.21976C56.3333 7.65852 56.3755 8.11416 56.5527 8.56699C56.9493 9.66671 57.329 10.8958 57.8577 11.9224C58.1362 12.4512 58.4287 13.0053 58.7803 13.475C58.9856 13.7534 59.3372 13.8715 59.4103 14.3244C59.0587 14.8362 59.0306 15.5844 58.8393 16.2004C57.9309 19.0411 58.2824 22.5427 59.5565 24.6381C59.9672 25.2681 60.9178 26.6463 62.1948 26.1175C63.3226 25.6647 63.0751 24.2415 63.3957 22.9815C63.4689 22.6749 63.4239 22.4837 63.5729 22.2784V22.3374C63.9386 23.0406 64.2901 23.7156 64.6136 24.4187C65.3758 25.6506 66.7371 26.9247 67.8649 27.7742C68.4668 28.227 68.9337 29.0061 69.6819 29.2817V29.2086H69.6228C69.4625 28.9892 69.2572 28.8851 69.0518 28.7107C68.5769 28.2402 68.136 27.7364 67.7327 27.2032C66.6921 25.7969 65.7555 24.2444 64.9342 22.6468C64.5386 21.8575 64.1773 21.0514 63.8514 20.2308C63.7051 19.9383 63.7051 19.4826 63.4548 19.3364C63.0751 19.8792 62.5182 20.3461 62.2538 21.0352C61.7701 22.104 61.725 23.4371 61.5366 24.8153C61.4494 24.8434 61.4916 24.8153 61.4494 24.8744C60.645 24.6691 60.3666 23.8478 60.0712 23.1446C59.309 21.3586 59.1909 18.501 59.8378 16.4507C60.015 15.9219 60.7603 14.2681 60.4678 13.7703C60.3075 13.2865 59.8097 13.0081 59.5453 12.6284C59.2078 12.1587 58.8703 11.5596 58.6368 11.0308C58.0349 9.62452 57.7424 8.07197 57.0843 6.66568C56.7918 6.0216 56.263 5.34658 55.8383 4.74749C55.3545 4.07247 54.8286 3.59152 54.4601 2.79837C54.3279 2.51993 54.1536 2.0671 54.3589 1.77178C54.4039 1.56646 54.5051 1.49333 54.7105 1.43427C55.0339 1.15582 55.9705 1.50739 56.2939 1.66771C57.2165 2.03335 57.9927 2.38492 58.769 2.91369C59.1206 3.16401 59.5003 3.6309 59.9559 3.76309H60.4847C61.2891 3.94028 62.1835 3.80809 62.9317 4.04154C64.2648 4.46624 65.4658 5.08219 66.5486 5.7544C69.8601 7.88015 72.5531 10.8409 74.3564 14.3384C74.663 14.9094 74.7951 15.4381 75.0736 16.0372C75.5855 17.2832 76.2464 18.5264 76.7724 19.7133C77.2984 20.9002 77.799 22.1012 78.5584 23.0828C78.9381 23.6115 80.4344 23.8872 81.1207 24.1515C81.6185 24.385 82.3948 24.5903 82.8335 24.8547C83.697 25.3835 84.5464 25.9825 85.3536 26.5676C85.7642 26.846 87.0102 27.476 87.0833 27.9738L87.0862 27.9795Z" fill="white"/>
</svg>
