<svg width="90" height="90" viewBox="0 0 90 90" fill="none" xmlns="http://www.w3.org/2000/svg">
<path fill-rule="evenodd" clip-rule="evenodd" d="M67.5 5.59443H22.5C18.0245 5.59443 13.7322 7.36266 10.5676 10.5101C7.4029 13.6576 5.625 17.9265 5.625 22.3777V67.1332C5.625 71.5844 7.4029 75.8533 10.5676 79.0007C13.7322 82.1482 18.0245 83.9164 22.5 83.9164H67.5C71.9755 83.9164 76.2678 82.1482 79.4324 79.0007C82.5971 75.8533 84.375 71.5844 84.375 67.1332V22.3777C84.375 17.9265 82.5971 13.6576 79.4324 10.5101C76.2678 7.36266 71.9755 5.59443 67.5 5.59443V5.59443ZM22.5 0C16.5326 0 10.8097 2.35765 6.5901 6.55428C2.37053 10.7509 0 16.4428 0 22.3777L0 67.1332C0 73.0681 2.37053 78.76 6.5901 82.9566C10.8097 87.1532 16.5326 89.5109 22.5 89.5109H67.5C73.4674 89.5109 79.1903 87.1532 83.4099 82.9566C87.6295 78.76 90 73.0681 90 67.1332V22.3777C90 16.4428 87.6295 10.7509 83.4099 6.55428C79.1903 2.35765 73.4674 0 67.5 0L22.5 0Z" fill="white"/>
<path fill-rule="evenodd" clip-rule="evenodd" d="M48.0206 67.1327H28.4738V19.8318H47.5931C56.52 19.8318 61.8975 24.3577 61.8975 31.636C61.8975 36.5815 58.2413 41.0067 53.5556 41.7955V42.355C59.985 43.0095 64.2656 47.5634 64.2656 53.7284C64.2656 62.0529 58.1681 67.1327 48.0206 67.1327ZM35.8594 26.0584V39.8598H44.6231C51.1481 39.8598 54.5456 37.4654 54.5456 32.9787C54.5456 28.615 51.345 26.0584 45.8775 26.0584H35.8594V26.0584ZM46.5356 60.9061H35.8594V45.6613H46.1081C53.0606 45.6613 56.7225 48.2515 56.7225 53.2026C56.7225 58.2152 53.1956 60.9061 46.5356 60.9061V60.9061Z" fill="white"/>
</svg>
