<svg width="90" height="88" viewBox="0 0 90 88" fill="none" xmlns="http://www.w3.org/2000/svg">
<path d="M45.005 3.76512e-06C20.1396 -0.010051 0 20.1195 0 44.9648C0 64.6118 12.5986 81.3127 30.1441 87.4461C32.507 88.0393 32.145 86.3602 32.145 85.2139V77.4215C18.5007 79.0202 17.9477 69.9911 17.0327 68.4829C15.1827 65.3257 10.8088 64.5213 12.116 63.0131C15.2229 61.4144 18.3901 63.4153 22.0601 68.8348C24.7146 72.7662 29.8927 72.1026 32.517 71.449C33.0902 69.0861 34.3168 66.9746 36.006 65.3357C21.8691 62.8019 15.977 54.175 15.977 43.9191C15.977 38.942 17.6159 34.3671 20.8334 30.677C18.7823 24.5939 21.0245 19.3855 21.3261 18.6113C27.1679 18.0885 33.241 22.7941 33.7136 23.1661C37.0316 22.2713 40.8223 21.7987 45.0654 21.7987C49.3286 21.7987 53.1293 22.2914 56.4775 23.1963C57.6137 22.3316 63.2443 18.2896 68.6739 18.7823C68.9655 19.5565 71.1574 24.6442 69.2269 30.6469C72.4846 34.347 74.1437 38.9621 74.1437 43.9493C74.1437 54.2252 68.2114 62.8623 54.0342 65.3558C55.2485 66.55 56.2127 67.9742 56.8704 69.5452C57.5282 71.1162 57.8663 72.8025 57.865 74.5056V85.8172C57.9455 86.7222 57.865 87.617 59.3733 87.617C77.1802 81.6143 90 64.7928 90 44.9749C90 20.1195 69.8503 3.76512e-06 45.005 3.76512e-06V3.76512e-06Z" fill="white"/>
</svg>
