<svg width="90" height="90" viewBox="0 0 90 90" fill="none" xmlns="http://www.w3.org/2000/svg">
<path d="M32.9344 43.4263H54.5576C54.5576 43.4263 66.7082 43.6211 66.7082 31.6854V11.9457C66.7082 11.9457 68.5517 0 44.6803 0C21.828 0 23.2519 9.9073 23.2519 9.9073L23.2819 20.1743H45.08V23.2569H14.6236C14.6236 23.2569 0 21.5982 0 44.6503C0 67.7024 12.7651 66.883 12.7651 66.883H20.3792V56.1863C20.3792 56.1863 19.9645 43.4263 32.9344 43.4263ZM32.6546 14.7485C31.6145 14.7485 30.6169 14.3353 29.8814 13.5998C29.1459 12.8643 28.7327 11.8668 28.7327 10.8266C28.7327 9.78642 29.1459 8.78886 29.8814 8.05335C30.6169 7.31784 31.6145 6.90463 32.6546 6.90463C33.6948 6.90463 34.6924 7.31784 35.4279 8.05335C36.1634 8.78886 36.5766 9.78642 36.5766 10.8266C36.5766 11.8668 36.1634 12.8643 35.4279 13.5998C34.6924 14.3353 33.6948 14.7485 32.6546 14.7485Z" fill="white"/>
<path d="M77.235 22.6425H69.6209V33.3391C69.6209 33.3391 70.0356 46.0992 57.0657 46.0992H35.4425C35.4425 46.0992 23.2919 45.8994 23.2919 57.8401V77.5798C23.2919 77.5798 21.4483 89.5255 45.3198 89.5255C68.167 89.5255 66.7431 79.6182 66.7431 79.6182L66.7132 69.3562H44.9151V66.2735H75.3764C75.3764 66.2735 90.0001 67.9323 90.0001 44.8802C90.0001 21.8281 77.235 22.6425 77.235 22.6425V22.6425ZM57.3454 74.7819C58.3856 74.7819 59.3832 75.1951 60.1187 75.9307C60.8542 76.6662 61.2674 77.6637 61.2674 78.7039C61.2674 79.7441 60.8542 80.7416 60.1187 81.4771C59.3832 82.2126 58.3856 82.6258 57.3454 82.6258C56.3053 82.6258 55.3077 82.2126 54.5722 81.4771C53.8367 80.7416 53.4235 79.7441 53.4235 78.7039C53.4235 77.6637 53.8367 76.6662 54.5722 75.9307C55.3077 75.1951 56.3053 74.7819 57.3454 74.7819V74.7819Z" fill="white"/>
</svg>
