<svg width="90" height="93" viewBox="0 0 90 93" fill="none" xmlns="http://www.w3.org/2000/svg">
<path d="M89.9537 20.963C89.9826 21.0846 90 21.2207 90 21.3394V41.2319C90.0007 41.4858 89.934 41.7353 89.8069 41.9551C89.6797 42.1748 89.4966 42.3569 89.2761 42.4828L72.5803 52.1048V71.1518C72.5809 71.4057 72.5143 71.6552 72.3871 71.875C72.26 72.0947 72.0768 72.2768 71.8564 72.4027L37.0053 92.4603C36.924 92.5054 36.8375 92.5404 36.7476 92.5645L36.6579 92.6109C36.4155 92.6717 36.1619 92.6717 35.9195 92.6109C35.8829 92.6 35.8479 92.5844 35.8153 92.5645C35.7316 92.5386 35.651 92.5037 35.5749 92.4603L0.738369 72.4027C0.516404 72.2773 0.331335 72.0957 0.201734 71.8761C0.0721339 71.6566 0.00256178 71.4068 0 71.1518V11.4771C0 11.3555 0.0289557 11.2194 0.0608069 11.1007C0.0752847 11.0543 0.0897626 11.0254 0.107136 10.9791L0.196898 10.7532C0.211376 10.7069 0.257705 10.6779 0.286661 10.6316L0.422753 10.4492C0.471497 10.4191 0.517091 10.3842 0.558844 10.3449C0.619651 10.2986 0.663085 10.2552 0.723892 10.2233L18.1436 0.193075C18.3639 0.0665694 18.6135 0 18.8675 0C19.1215 0 19.3711 0.0665694 19.5914 0.193075L37.0256 10.2233C37.0864 10.2523 37.1298 10.2986 37.1762 10.3449L37.3267 10.4492C37.3713 10.5072 37.4119 10.5682 37.4484 10.6316C37.4773 10.6605 37.5236 10.7069 37.5526 10.7532L37.6424 10.9791C37.6568 11.0254 37.6887 11.0543 37.6887 11.1007C37.7325 11.2212 37.7532 11.3489 37.7495 11.4771V48.743L52.2563 40.3893V21.3423C52.2617 21.1712 52.298 21.0025 52.3634 20.8443L52.4532 20.6184C52.4821 20.5576 52.5285 20.5286 52.5574 20.4823C52.6038 20.4215 52.6327 20.3607 52.679 20.3173C52.7254 20.2738 52.7833 20.242 52.8296 20.213C52.8731 20.1648 52.9239 20.1238 52.9802 20.0914L70.4144 10.0612C70.6322 9.92751 70.8827 9.85677 71.1383 9.85677C71.3938 9.85677 71.6444 9.92751 71.8622 10.0612L89.2819 20.0914C89.3427 20.1204 89.3861 20.1667 89.4469 20.213C89.4933 20.242 89.5367 20.2738 89.583 20.3173C89.6294 20.3607 89.6728 20.4215 89.7191 20.4823C89.7481 20.5286 89.7944 20.5576 89.8089 20.6184C89.8552 20.6937 89.8697 20.769 89.8987 20.8443C89.9276 20.8732 89.945 20.9195 89.9595 20.9659L89.9537 20.963ZM87.0871 40.3864V23.8585L80.9948 27.3564L72.5803 32.2122V48.7401L87.0871 40.3864ZM69.6847 70.3063V53.7611L61.3889 58.4808L37.7408 71.9944V88.6903L69.6847 70.3063ZM2.88978 13.9933V70.3063L34.8308 88.6903V71.9944L18.1349 62.5375C18.0741 62.5086 18.0307 62.4622 17.9844 62.4159C17.938 62.3869 17.8801 62.3551 17.8483 62.3117H17.8338C17.7875 62.2653 17.7585 62.2074 17.7122 62.1611C17.6832 62.1148 17.6369 62.0713 17.6079 62.0105C17.5742 61.9536 17.5489 61.8922 17.5327 61.8281C17.5037 61.7673 17.4718 61.7239 17.4574 61.6631C17.4429 61.6022 17.4284 61.527 17.4284 61.4517C17.4139 61.3909 17.3995 61.3474 17.3995 61.2866V22.3471L8.98494 17.4912L2.88978 13.9933ZM18.8617 3.12049L4.35493 11.4742L18.8617 19.8279L33.3685 11.4742L18.8617 3.12049ZM26.4163 55.2725L34.8308 50.4167V13.9962L28.7385 17.4941L20.3095 22.3499V58.7704L26.4163 55.2725ZM71.1325 12.9828L56.6083 21.3365L71.1325 29.6902L85.6393 21.3365L71.1325 12.9828ZM69.6847 32.2122L55.1605 23.8585V40.3864L63.5751 45.2423L69.6818 48.7401L69.6847 32.2122ZM36.2814 69.4782L68.208 51.2593L53.7157 42.9056L21.8036 61.2751L36.2814 69.4782Z" fill="white"/>
</svg>
