<svg width="90" height="101" viewBox="0 0 90 101" fill="none" xmlns="http://www.w3.org/2000/svg">
<path d="M80.9714 0.000107584H9.02859C7.84159 -0.00570106 6.66521 0.223759 5.5674 0.67523C4.46959 1.1267 3.47213 1.79123 2.63264 2.63043C1.79315 3.46963 1.12827 4.46687 0.676416 5.56452C0.224564 6.66216 -0.0053037 7.83847 9.28608e-05 9.02547V91.2566C-0.0053037 92.4436 0.224564 93.6199 0.676416 94.7175C1.12827 95.8152 1.79315 96.8124 2.63264 97.6516C3.47213 98.4908 4.46959 99.1554 5.5674 99.6068C6.66521 100.058 7.84159 100.288 9.02859 100.282H80.9714C82.1581 100.287 83.3339 100.056 84.4311 99.6043C85.5284 99.1524 86.5253 98.4878 87.3646 97.6488C88.2038 96.8099 88.8687 95.8132 89.321 94.7161C89.7733 93.619 90.0041 92.4432 89.9999 91.2566V9.02547C90.0053 7.83847 89.7754 6.66216 89.3236 5.56452C88.8717 4.46687 88.2069 3.46963 87.3674 2.63043C86.5279 1.79123 85.5304 1.1267 84.4326 0.67523C83.3348 0.223759 82.1584 -0.00570106 80.9714 0.000107584V0.000107584ZM84.9858 91.2566C84.9858 93.5098 83.2215 95.271 80.9714 95.271H9.02859C8.49978 95.2769 7.97512 95.1771 7.48542 94.9774C6.99572 94.7777 6.55083 94.4822 6.17688 94.1083C5.80293 93.7343 5.50746 93.2895 5.30779 92.7998C5.10813 92.3101 5.00831 91.7854 5.01418 91.2566V9.02547C5.01418 6.77227 6.77852 5.01107 9.02859 5.01107H80.9714C83.2246 5.01107 84.9858 6.7754 84.9858 9.02547V91.2566ZM22.5572 85.2303L33.8358 75.2115L22.5572 65.1927V85.2303ZM63.1839 44.6255C61.1751 42.6168 57.4208 40.1222 51.1532 40.1222C44.3811 40.1222 37.3613 41.8678 32.3504 43.629V15.0518H22.3097V58.4143L29.3294 55.152C29.3294 55.152 40.8712 49.8966 50.89 49.8966C55.9009 49.8966 57.1576 52.6575 57.1576 55.152V85.2334H67.1952V55.152C67.4428 54.403 67.4428 48.8844 63.1839 44.6255V44.6255ZM49.8966 31.3382H59.9154C64.4186 26.064 66.6875 20.8086 67.4396 15.0518H57.4208C56.4055 20.8086 53.8953 26.0671 49.8966 31.3382Z" fill="white"/>
</svg>
