<svg width="90" height="102" viewBox="0 0 90 102" fill="none" xmlns="http://www.w3.org/2000/svg">
<path d="M0 0L8.09595 91.0847L44.9939 101.503L81.7446 91.0847L90 0H0ZM72.9862 21.6061L72.3974 27.3644L72.1889 29.7434H29.0841L30.09 41.2358H71.1953L70.7905 44.2003L68.19 73.7486L67.9815 75.725L45.0429 82.0201V82.0567H44.8957L44.8589 82.0689V82.0567H44.8467L21.7119 75.7127L20.3135 58.0717H31.4883L32.2857 67.002L44.8467 70.3814H44.8957L57.4077 67.0142L58.806 52.5451H44.8589V52.5329H19.7247L16.9279 21.6061L16.7194 18.6415H73.1825L72.9862 21.6061V21.6061Z" fill="white"/>
</svg>
