<svg width="90" height="90" viewBox="0 0 90 90" fill="none" xmlns="http://www.w3.org/2000/svg">
<path d="M0 0H90V90H0V0ZM82.625 68.535C81.97 64.43 79.295 60.98 71.365 57.76C68.605 56.465 65.54 55.57 64.62 53.49C64.28 52.25 64.23 51.58 64.45 50.845C65.015 48.425 67.885 47.7 70.135 48.37C71.6 48.82 72.95 49.945 73.795 51.75C77.67 49.215 77.67 49.215 80.375 47.53C79.36 45.96 78.855 45.275 78.18 44.6C75.815 41.96 72.665 40.61 67.55 40.725L64.91 41.06C62.375 41.68 59.955 43.035 58.495 44.83C54.22 49.67 55.455 58.105 60.63 61.6C65.745 65.425 73.235 66.265 74.19 69.865C75.09 74.255 70.93 75.66 66.815 75.155C63.78 74.475 62.09 72.96 60.235 70.145L53.375 74.085C54.16 75.88 55.06 76.67 56.41 78.245C62.935 84.825 79.25 84.49 82.175 74.475C82.28 74.14 83.075 71.835 82.455 68.29L82.625 68.535V68.535ZM48.94 41.365H40.51C40.51 48.63 40.475 55.855 40.475 63.135C40.475 67.755 40.71 71.995 39.955 73.3C38.72 75.885 35.525 75.555 34.08 75.095C32.595 74.365 31.84 73.35 30.965 71.89C30.73 71.5 30.555 71.16 30.49 71.16L23.65 75.38C24.795 77.745 26.465 79.775 28.62 81.065C31.825 82.98 36.13 83.6 40.64 82.59C43.58 81.74 46.115 79.995 47.43 77.295C49.35 73.81 48.94 69.53 48.925 64.75C48.965 57.045 48.925 49.335 48.925 41.575L48.94 41.365Z" fill="white"/>
</svg>
