<svg width="90" height="48" viewBox="0 0 90 48" fill="none" xmlns="http://www.w3.org/2000/svg">
<path d="M26.2941 17.0379H22.7475L20.8153 27.0231H23.9653C26.0437 27.0231 27.5963 26.6272 28.6228 25.8326C29.6325 25.0521 30.3216 23.7258 30.6731 21.8849C31.0219 20.1175 30.8616 18.8647 30.2203 18.1295C29.5594 17.4084 28.2544 17.0407 26.2941 17.0407V17.0379ZM45 0C20.1403 0 0 10.6639 0 23.7993C0 36.9348 20.1403 47.5987 45 47.5987C69.8597 47.5987 90 36.9348 90 23.7993C90 10.6639 69.8597 0 45 0ZM32.7684 28.1005C31.7948 29.0414 30.623 29.7499 29.34 30.1734C28.08 30.5721 26.4712 30.7927 24.5222 30.7927H20.0812L18.8663 37.1271H13.6941L18.3094 13.2825H28.2403C31.23 13.2825 33.4125 14.063 34.7878 15.6381C36.1519 17.2132 36.5766 19.4246 36.0169 22.2525C35.8074 23.3724 35.423 24.4518 34.8778 25.4508C34.3168 26.4403 33.604 27.3346 32.7656 28.1005H32.7684ZM47.8716 30.7927L49.9078 20.2362C50.1413 19.04 50.0541 18.22 49.6406 17.7732C49.2469 17.3461 48.3806 17.1256 47.0644 17.1256H42.9778L40.3425 30.7927H35.2012L39.8138 6.93393H44.9409L43.7119 13.2825H48.2822C51.1706 13.2825 53.145 13.783 54.2306 14.7841C55.3303 15.8021 55.6509 17.4338 55.2291 19.6904L53.0719 30.7955L47.8716 30.7927ZM76.3453 22.2525C76.1423 23.3741 75.7575 24.4546 75.2062 25.4508C74.6505 26.4392 73.9434 27.3334 73.1109 28.1005C72.1285 29.0369 70.9532 29.7446 69.6684 30.1734C68.4084 30.5721 66.7969 30.7927 64.8506 30.7927H60.4266L59.1975 37.1271H54.0253L58.6406 13.2825H68.5716C71.5613 13.2825 73.7437 14.063 75.1191 15.6551C76.4831 17.2161 76.9078 19.4246 76.3481 22.2525H76.3453ZM66.6225 17.0379H63.09L61.1578 27.0231H64.2938C66.3863 27.0231 67.9388 26.6272 68.9513 25.8326C69.975 25.0521 70.6641 23.7258 71.0184 21.8849C71.3672 20.1175 71.2069 18.8647 70.5459 18.1295C69.9047 17.4084 68.5856 17.0407 66.6225 17.0407V17.0379Z" fill="white"/>
</svg>
