<svg width="90" height="116" viewBox="0 0 90 116" fill="none" xmlns="http://www.w3.org/2000/svg">
<path d="M19.0976 59.3636C19.0338 70.8734 27.4762 77.7329 40.9458 74.6133V44.1081C27.308 39.9565 19.1555 48.3583 19.0976 59.3636ZM41.3575 0H59.9064V87.8046C42.1287 90.7096 25.0931 92.5535 12.9165 85.7462C-2.76806 76.9733 -4.0321 49.1063 8.38219 36.692C14.6734 30.4008 27.3486 25.9651 40.9458 28.8585V1.24085C40.911 0.655215 40.8762 0.0695804 41.3575 0V0ZM89.9999 19.3781H71.451V0H89.9999V19.3781V19.3781Z" fill="white"/>
<path d="M90 29.1831C89.9826 42.8441 89.9826 52.6549 89.9826 69.2556C89.1941 85.5664 89.3796 98.5489 83.4015 106.354C82.2244 107.896 79.7253 110.134 77.6321 111.711C75.8752 113.033 72.5238 115.718 70.6277 115.834C68.7084 115.956 63.7856 113.172 61.5591 112.123C58.6309 110.749 55.9288 108.916 52.9021 108.006C59.9645 103.634 66.6558 100.352 69.3926 91.5155C71.77 83.8269 71.4511 72.6882 71.4511 61.8337C71.4511 51.1125 71.5032 38.6518 71.5032 29.1889L90 29.1831V29.1831Z" fill="white"/>
</svg>
