<svg width="90" height="81" viewBox="0 0 90 81" fill="none" xmlns="http://www.w3.org/2000/svg">
<path d="M55.4091 58.3898C53.1323 61.6392 50.6511 64.7395 47.9807 67.6717C55.0902 74.598 61.7065 77.8413 65.3718 75.7118C69.0456 73.5866 69.5516 66.2165 67.1322 56.576C63.5051 57.3869 59.5635 58.0014 55.4091 58.3898V58.3898ZM49.8389 58.761C46.6143 58.895 43.3857 58.895 40.1611 58.761C41.7642 60.8607 43.3842 62.8067 45 64.582C46.6158 62.8067 48.2316 60.8607 49.8389 58.761ZM71.2695 25.0729C82.6013 28.3333 90 33.7531 90 40.2953C90 46.8375 82.6013 52.2573 71.2695 55.5177C74.1184 66.9974 73.1447 76.1386 67.5021 79.4075C61.8553 82.6807 53.4787 78.9594 45 70.7444C36.5213 78.9594 28.1447 82.6807 22.4979 79.4075C16.8553 76.1386 15.8773 66.9974 18.7305 55.5177C7.39866 52.2573 0 46.8375 0 40.2953C0 33.7531 7.39866 28.3333 18.7305 25.0729C15.8816 13.5931 16.8553 4.45201 22.4979 1.18306C28.1447 -2.09017 36.5213 1.63115 45 9.84621C53.4787 1.63115 61.8553 -2.09017 67.5021 1.18306C73.1447 4.45201 74.1226 13.5931 71.2695 25.0729V25.0729ZM67.1322 24.0145C69.5559 14.3698 69.0456 7.00401 65.3761 4.87877C61.7065 2.74925 55.0902 5.9926 47.985 12.9189C50.6524 15.8525 53.1321 18.9527 55.4091 22.2008C59.5677 22.5849 63.5051 23.1994 67.1322 24.0145ZM22.8678 56.576C20.4441 66.2207 20.9544 73.5866 24.6239 75.7118C28.2935 77.8413 34.9098 74.598 42.015 67.6717C39.3461 64.7394 36.8663 61.6391 34.5909 58.3898C30.6487 58.0361 26.7331 57.4303 22.8678 56.576V56.576ZM40.1611 21.8295C43.3857 21.6956 46.6143 21.6956 49.8389 21.8295C48.3103 19.8215 46.6958 17.8808 45 16.0128C43.3842 17.7881 41.7684 19.7342 40.1611 21.8338V21.8295ZM34.5909 22.2008C36.8691 18.9512 39.3517 15.851 42.0235 12.9189C34.9098 5.9926 28.2892 2.74925 24.6282 4.87877C20.9544 7.00401 20.4484 14.3741 22.8678 24.0145C26.4949 23.2037 30.4365 22.5892 34.5909 22.2008V22.2008ZM53.0535 54.2929C56.0803 49.8348 58.7709 45.1559 61.1027 40.2953C58.7709 35.4347 56.0803 30.7557 53.0535 26.2977C47.692 25.8948 42.308 25.8948 36.9465 26.2977C33.9197 30.7557 31.2291 35.4347 28.8973 40.2953C31.2291 45.1559 33.9197 49.8348 36.9465 54.2929C42.308 54.6958 47.692 54.6958 53.0535 54.2929V54.2929ZM58.5132 53.7339C61.1282 53.3924 63.6157 52.9529 65.9544 52.4365C65.1896 50.0286 64.3214 47.655 63.3521 45.3225C61.8553 48.1906 60.241 50.9954 58.5132 53.7296V53.7339ZM31.4868 26.8525C28.8718 27.1939 26.3843 27.6334 24.0456 28.1498C24.7685 30.4372 25.6359 32.8185 26.6479 35.2638C28.1447 32.3957 29.759 29.5909 31.4868 26.8567V26.8525ZM24.0456 52.4322C26.3843 52.9486 28.8718 53.3839 31.4868 53.7296C29.759 50.9954 28.1447 48.1906 26.6479 45.3225C25.6782 47.6534 24.81 50.0256 24.0456 52.4322V52.4322ZM19.8871 51.3867C20.9969 47.8275 22.4383 44.0977 24.1817 40.291C22.5178 36.6873 21.0834 32.9813 19.8871 29.1954C10.3539 31.9138 4.2521 36.0405 4.2521 40.291C4.2521 44.5415 10.3539 48.6683 19.8871 51.3867ZM65.9544 28.1498C63.4935 27.6112 61.0108 27.1784 58.5132 26.8525C60.241 29.5867 61.8553 32.3914 63.3521 35.2596C64.3641 32.8185 65.2315 30.4372 65.9544 28.1498V28.1498ZM70.1129 29.1954C69.0031 32.7545 67.5617 36.4844 65.8183 40.291C67.5617 44.0977 69.0031 47.8275 70.1129 51.3867C79.6461 48.6683 85.7479 44.5415 85.7479 40.291C85.7479 36.0405 79.6461 31.9138 70.1129 29.1954ZM45 48.3183C43.9502 48.3183 42.9107 48.1108 41.9408 47.7076C40.971 47.3044 40.0897 46.7134 39.3474 45.9684C38.6051 45.2234 38.0163 44.339 37.6146 43.3656C37.2128 42.3922 37.006 41.3489 37.006 40.2953C37.006 39.2417 37.2128 38.1984 37.6146 37.225C38.0163 36.2516 38.6051 35.3672 39.3474 34.6222C40.0897 33.8771 40.971 33.2862 41.9408 32.883C42.9107 32.4798 43.9502 32.2723 45 32.2723C47.1201 32.2723 49.1534 33.1175 50.6526 34.6222C52.1517 36.1268 52.994 38.1675 52.994 40.2953C52.994 42.4231 52.1517 44.4638 50.6526 45.9684C49.1534 47.473 47.1201 48.3183 45 48.3183V48.3183Z" fill="white"/>
</svg>
