<svg width="90" height="87" viewBox="0 0 90 87" fill="none" xmlns="http://www.w3.org/2000/svg">
<path d="M5.72156 20.2465C-2.25628 31.6399 -1.25941 46.4446 4.82606 58.5382C4.97249 58.8434 5.11893 59.1207 5.26536 59.398C5.35266 59.5884 5.45685 59.7761 5.55823 59.9525C5.60894 60.0589 5.66828 60.161 5.73564 60.2578C5.83702 60.4623 5.94121 60.6359 6.04259 60.8264L6.62832 61.8178C6.7297 62.0083 6.84797 62.1819 6.96625 62.3584C7.17182 62.7085 7.41963 63.0586 7.6252 63.4086C7.72658 63.5543 7.81669 63.6999 7.91807 63.8456C8.28415 64.4141 8.68122 64.9687 9.09236 65.5092C9.38523 65.9041 9.67809 66.2962 9.98786 66.6911C10.0892 66.8227 10.2075 66.9684 10.3117 67.114L11.1481 68.1195C11.2494 68.2371 11.3396 68.3688 11.455 68.4836C11.8211 68.9205 12.2182 69.3602 12.5983 69.7831C12.5983 69.7971 12.6124 69.7971 12.6124 69.8111C13.0968 70.4105 13.6234 70.9622 14.2119 71.4608C14.5189 71.766 14.8146 72.0741 15.1356 72.3654L15.5157 72.7295C15.9269 73.1244 16.338 73.5025 16.7773 73.8806C16.7914 73.8806 16.7914 73.8806 16.8055 73.8946L17.0111 74.0711C17.3912 74.4071 17.7883 74.7432 18.1854 75.0485L18.6556 75.4434C18.9626 75.6927 19.3005 75.9391 19.6243 76.1884L20.1369 76.5833C20.4889 76.8466 20.855 77.093 21.207 77.3563C21.3393 77.4431 21.4717 77.5468 21.6181 77.6196L21.7195 77.7064L22.7755 78.4066L23.2289 78.6979C23.7724 79.048 24.33 79.384 24.8706 79.7201C25.0311 79.793 25.1776 79.8798 25.324 79.9694C25.7352 80.2019 26.1604 80.4371 26.5715 80.6556C26.7912 80.7872 27.0249 80.888 27.2614 81.0057C27.5402 81.1653 27.8331 81.311 28.126 81.4734C28.2035 81.49 28.2778 81.5194 28.3456 81.5602L28.6976 81.7367C29.151 81.9551 29.6213 82.1736 30.1057 82.378C30.1929 82.4228 30.2971 82.4508 30.3985 82.5097C30.942 82.7421 31.4686 82.9774 32.0403 83.1958C32.1585 83.2239 32.2909 83.2967 32.4204 83.3415C32.933 83.5319 33.4624 83.7196 33.9749 83.91L34.1523 83.9688C34.738 84.1733 35.2956 84.3469 35.8842 84.5374C36.0165 84.5654 36.163 84.6242 36.2953 84.655C36.8979 84.8455 37.4696 85.0499 38.0694 85.1648C76.5985 92.1526 87.7894 62.1315 87.7894 62.1315C78.3867 74.3119 61.696 77.5216 45.8867 73.9478C45.301 73.8162 44.7293 73.6257 44.1267 73.4521C43.4227 73.2476 42.7046 73.0152 42.0006 72.7799L41.7669 72.6931C41.2684 72.5166 40.77 72.329 40.2716 72.1385C40.1392 72.0797 39.9928 72.0377 39.8604 71.9789C39.3139 71.7645 38.7712 71.5404 38.2327 71.3067C38.1145 71.2619 38.0272 71.2059 37.9089 71.1611C37.4555 70.9566 36.9993 70.7522 36.5459 70.5337C36.4108 70.4711 36.2783 70.4029 36.1489 70.3293C35.7969 70.1696 35.4449 69.9792 35.0929 69.8027C34.8591 69.6851 34.6226 69.5703 34.4029 69.4526L33.1273 68.7525C32.9905 68.6612 32.8486 68.5779 32.702 68.5032C32.1445 68.1671 31.601 67.831 31.0603 67.4977C30.9139 67.4109 30.7674 67.3073 30.621 67.2064C30.2242 66.9569 29.8327 66.6992 29.4467 66.4334C29.3162 66.3463 29.1893 66.2538 29.0665 66.1562C28.6859 65.9065 28.314 65.644 27.9514 65.3692C27.7909 65.2375 27.6275 65.1199 27.4529 64.9911C27.1291 64.7418 26.794 64.4953 26.4701 64.2181L26.0168 63.868C25.5915 63.5319 25.1804 63.1818 24.7693 62.8177C24.7242 62.7729 24.682 62.7449 24.6228 62.7001L23.3331 61.5322L22.9529 61.1821C22.646 60.86 22.3362 60.5687 22.0152 60.2634L21.6491 59.8853C21.2519 59.4929 20.8659 59.0895 20.4917 58.6754L20.4326 58.6166C20.0355 58.1937 19.6553 57.74 19.2583 57.303C19.1569 57.1854 19.0668 57.0538 18.9654 56.939L18.115 55.9027C17.6774 55.3528 17.2521 54.7935 16.8393 54.225C8.06732 42.3219 4.89927 25.8956 11.9112 12.4185L5.72156 20.2465ZM30.4492 10.6484C24.6707 18.905 24.9917 29.9315 29.4946 38.6558C30.2436 40.1149 31.0941 41.5293 32.0318 42.8849C32.8963 44.1116 33.851 45.568 35.0084 46.5622C35.4054 47.0131 35.8447 47.4529 36.2981 47.9038L36.636 48.2399C37.0613 48.6488 37.5006 49.0577 37.9568 49.4498L38.0159 49.5086C38.5143 49.9455 39.0269 50.3684 39.5704 50.7773C39.6886 50.8642 39.8041 50.9678 39.9224 51.0546C40.4518 51.4495 40.9784 51.8416 41.5219 52.2225L41.581 52.2673C41.8147 52.427 42.0654 52.5894 42.3301 52.7491C42.4315 52.8219 42.5497 52.9087 42.668 52.9675C43.0651 53.2308 43.4593 53.4632 43.8564 53.7125C43.9296 53.7405 43.9746 53.7713 44.0338 53.7993C44.3717 54.0038 44.7519 54.1942 45.1039 54.3819C45.2221 54.4547 45.3376 54.5135 45.47 54.5863C45.7206 54.704 45.9684 54.8356 46.2021 54.9644L46.3345 55.0092C46.8329 55.2585 47.3454 55.491 47.8608 55.7234C48.389 55.9537 48.9223 56.1722 49.4603 56.3788C49.6518 56.4376 49.8264 56.5104 50.0038 56.5693C50.3839 56.7149 50.7951 56.8465 51.1781 56.9782L51.6906 57.1378C52.2482 57.3142 52.8057 57.5327 53.3774 57.6195C83.1232 62.5208 90 39.7508 90 39.7508C83.7963 48.6208 71.814 52.8499 59.0236 49.5534C58.4519 49.4078 57.8943 49.2313 57.3368 49.0577C57.1593 49.0129 56.9988 48.9569 56.8242 48.912C56.4441 48.7664 56.0329 48.6348 55.6668 48.5031L55.1233 48.2987C54.6981 48.1222 54.2729 47.9766 53.8618 47.7889C53.7294 47.7301 53.6111 47.7021 53.5238 47.6433C52.9969 47.4142 52.474 47.1761 51.9553 46.9291L51.1781 46.5202L50.7388 46.3018C50.3999 46.1289 50.0674 45.9439 49.7419 45.7472C49.6623 45.7064 49.5843 45.6624 49.5082 45.6156C49.1111 45.3663 48.7028 45.1339 48.3198 44.8706C48.1923 44.802 48.0699 44.7243 47.9537 44.6381L47.1765 44.1424C46.633 43.7643 46.1064 43.3554 45.5629 42.9745C45.4534 42.8684 45.3357 42.771 45.2109 42.6832C39.5929 38.2777 35.1633 32.2673 33.0512 25.4699C30.8378 18.3952 31.3363 10.4607 35.1492 4.02746L30.4492 10.6484ZM51.2485 3.47291C47.8467 8.44702 47.5088 14.631 49.8545 20.1177C52.3467 25.9376 57.4522 30.5196 63.3912 32.6762C63.6419 32.777 63.8756 32.8526 64.1234 32.9394L64.4473 33.0403C64.7993 33.1411 65.1513 33.2727 65.5033 33.3624C81.9292 36.5132 86.3729 24.9602 87.5782 23.2685C83.6611 28.856 77.1054 30.1975 69.0543 28.2566C67.5912 27.8712 66.1668 27.3528 64.7993 26.7078C63.3753 26.0132 62.0196 25.1881 60.7498 24.2432C53.5323 18.8013 49.0745 8.44422 53.7829 0L51.2485 3.47291Z" fill="white"/>
</svg>
