<svg width="90" height="102" viewBox="0 0 90 102" fill="none" xmlns="http://www.w3.org/2000/svg">
<path d="M44.9799 101.512C43.6303 101.512 42.2605 101.149 41.0721 100.464L28.6437 93.1121C26.7905 92.0647 27.697 91.7021 28.3013 91.5007C30.7789 90.6345 31.2825 90.4532 33.9212 88.9425C34.2032 88.7814 34.5658 88.8418 34.8478 89.0231L44.3957 94.6833C44.7381 94.8848 45.2216 94.8848 45.5439 94.6833L82.7484 73.2106C83.0909 73.0092 83.3124 72.6063 83.3124 72.2035V29.2581C83.3124 28.8351 83.0909 28.4523 82.7283 28.2308L45.5439 6.7782C45.2014 6.57677 44.7381 6.57677 44.3957 6.7782L7.23142 28.2509C6.86884 28.4523 6.64727 28.8552 6.64727 29.2782V72.2035C6.64727 72.6063 6.86884 73.0092 7.23142 73.1905L17.4239 79.0723C22.9633 81.8319 26.3474 78.5889 26.3474 75.3055V32.9241C26.3474 32.3198 26.8308 31.8565 27.4351 31.8565H32.1486C32.7328 31.8565 33.2363 32.3198 33.2363 32.9241V75.3257C33.2363 82.6981 29.2077 86.9282 22.218 86.9282C20.0627 86.9282 18.3706 86.9282 13.6571 84.5916L3.90779 78.9716C1.4906 77.5817 0 74.9832 0 72.1833V29.2581C0 26.4783 1.4906 23.8597 3.90779 22.4698L41.0721 0.997091C43.4288 -0.332364 46.551 -0.332364 48.8876 0.997091L86.0922 22.4899C88.5094 23.8798 90 26.4783 90 29.2782V72.2035C90 74.9832 88.5094 77.5817 86.0922 78.9917L48.8876 100.464C47.6992 101.149 46.3496 101.512 44.9799 101.512ZM75.0134 59.1909C75.0134 51.1538 69.5747 49.0186 58.1535 47.5078C46.5913 45.977 45.423 45.1914 45.423 42.4922C45.423 40.2563 46.41 37.2751 54.9709 37.2751C62.6052 37.2751 65.4252 38.9268 66.5935 44.0835C66.6943 44.5669 67.1374 44.9295 67.641 44.9295H72.4754C72.7775 44.9295 73.0595 44.8086 73.261 44.5871C73.4624 44.3655 73.5631 44.0633 73.543 43.7612C72.7977 34.878 66.8957 30.7487 54.9709 30.7487C44.3554 30.7487 38.0304 35.2205 38.0304 42.7339C38.0304 50.8718 44.3353 53.1278 54.5076 54.135C66.6943 55.3234 67.641 57.1162 67.641 59.5132C67.641 63.6627 64.2972 65.4353 56.4615 65.4353C46.6115 65.4353 44.4561 62.9577 43.731 58.0629C43.6504 57.5392 43.2073 57.1565 42.6634 57.1565H37.8492C37.2449 57.1565 36.7816 57.6399 36.7816 58.224C36.7816 64.4886 40.1858 71.9617 56.4816 71.9617C68.2453 71.9416 75.0134 67.2885 75.0134 59.1909V59.1909Z" fill="white"/>
</svg>
