<svg width="74" height="67" viewBox="0 0 74 67" fill="none" xmlns="http://www.w3.org/2000/svg">
<path d="M36.4649 66.4649C35.2479 66.4672 34.0686 66.0434 33.1315 65.2669L1.88152 39.2253C0.817894 38.3412 0.149017 37.0708 0.0220391 35.6936C-0.104939 34.3164 0.320384 32.9451 1.20444 31.8815C2.08849 30.8179 3.35887 30.149 4.73609 30.022C6.11331 29.8951 7.48456 30.3204 8.54819 31.2044L36.4649 54.5378L64.3815 32.0378C64.9143 31.6051 65.5273 31.2821 66.1853 31.0871C66.8433 30.8921 67.5334 30.8292 68.2158 30.9018C68.8982 30.9744 69.5596 31.1811 70.1619 31.5101C70.7642 31.8392 71.2955 32.284 71.7253 32.819C72.2023 33.3545 72.5635 33.9828 72.7864 34.6644C73.0093 35.3461 73.089 36.0664 73.0205 36.7803C72.952 37.4941 72.7369 38.1862 72.3886 38.813C72.0402 39.4399 71.5662 39.9881 70.9961 40.4232L39.7461 65.5794C38.7821 66.2332 37.6268 66.5449 36.4649 66.4649Z" fill="#3871FF"/>
<path d="M36.9514 44.9899C35.9184 44.9918 34.9174 44.6433 34.122 44.0047L7.59704 22.5872C6.69423 21.8601 6.12649 20.8153 6.01871 19.6826C5.91093 18.5499 6.27194 17.4222 7.02233 16.5474C7.77271 15.6727 8.85101 15.1226 10.02 15.0181C11.189 14.9137 12.3529 15.2635 13.2557 15.9906L36.9514 35.1807L60.647 16.6759C61.0992 16.3201 61.6196 16.0544 62.1781 15.8941C62.7366 15.7337 63.3223 15.6819 63.9016 15.7416C64.4808 15.8013 65.0422 15.9714 65.5534 16.242C66.0646 16.5126 66.5156 16.8784 66.8804 17.3185C67.2853 17.7589 67.5919 18.2756 67.7811 18.8362C67.9703 19.3968 68.0379 19.9892 67.9798 20.5763C67.9217 21.1634 67.7391 21.7326 67.4434 22.2481C67.1477 22.7637 66.7454 23.2145 66.2615 23.5724L39.7365 44.2617C38.9183 44.7993 37.9377 45.0557 36.9514 44.9899Z" fill="#3871FF" fill-opacity="0.7"/>
<path d="M36.9608 23.9919C36.1278 23.9935 35.3205 23.7146 34.6791 23.2037L13.2879 6.06973C12.5599 5.48807 12.102 4.65223 12.0151 3.7461C11.9282 2.83996 12.2193 1.93775 12.8245 1.23794C13.4296 0.538128 14.2992 0.098045 15.2419 0.0145006C16.1847 -0.0690439 17.1233 0.210793 17.8514 0.792454L36.9608 16.1445L56.0702 1.34074C56.4349 1.05609 56.8545 0.843524 57.3049 0.715252C57.7553 0.586981 58.2277 0.545538 58.6948 0.593305C59.162 0.641072 59.6147 0.777105 60.027 0.993589C60.4392 1.21007 60.8029 1.50274 61.0971 1.85476C61.4236 2.20711 61.6709 2.62047 61.8235 3.06895C61.976 3.51743 62.0306 3.99136 61.9837 4.46105C61.9369 4.93074 61.7896 5.38606 61.5512 5.7985C61.3127 6.21094 60.9882 6.5716 60.598 6.85789L39.2069 23.4093C38.547 23.8395 37.7562 24.0446 36.9608 23.9919Z" fill="#3871FF" fill-opacity="0.4"/>
</svg>
