<svg width="282" height="76" viewBox="0 0 282 76" fill="none" xmlns="http://www.w3.org/2000/svg">
<path d="M94.79 51L92.54 45.63H82.37L80.12 51H77.15L86.03 30.06H88.88L97.76 51H94.79ZM83.45 42.99V43.14H91.46V42.99L87.5 33.42H87.44L83.45 42.99ZM108.598 35.4C110.258 35.4 111.568 35.96 112.528 37.08C113.488 38.2 113.968 39.6 113.968 41.28V51H111.238V41.58C111.238 39.14 110.138 37.92 107.938 37.92C106.198 37.92 104.558 38.88 103.018 40.8V51H100.288V35.7H102.688L103.018 37.62V38.07H103.078C104.698 36.29 106.538 35.4 108.598 35.4ZM119.799 37.56C121.259 36.12 122.959 35.4 124.899 35.4C126.839 35.4 128.519 36.14 129.939 37.62H130.029V29.1H132.759V51H130.359L130.029 49.08H129.939C128.519 50.56 126.839 51.3 124.899 51.3C122.959 51.3 121.259 50.58 119.799 49.14C118.359 47.7 117.639 45.77 117.639 43.35C117.639 40.93 118.359 39 119.799 37.56ZM125.289 48.75C127.089 48.75 128.669 48 130.029 46.5V40.2C128.669 38.7 127.089 37.95 125.289 37.95C123.809 37.95 122.619 38.42 121.719 39.36C120.819 40.3 120.369 41.63 120.369 43.35C120.369 45.07 120.819 46.4 121.719 47.34C122.619 48.28 123.809 48.75 125.289 48.75ZM145.925 35.4H146.165V38.01H145.925C144.745 38.01 143.645 38.24 142.625 38.7C141.605 39.16 140.805 39.8 140.225 40.62V51H137.495V35.7H139.895L140.225 37.62V38.07H140.285C141.725 36.29 143.605 35.4 145.925 35.4ZM162.537 43.35V44.31H150.957C151.117 45.71 151.637 46.8 152.517 47.58C153.397 48.36 154.727 48.75 156.507 48.75C158.307 48.75 159.967 48.25 161.487 47.25H161.637V49.89C159.957 50.83 157.977 51.3 155.697 51.3C153.437 51.3 151.617 50.61 150.237 49.23C148.877 47.83 148.197 45.95 148.197 43.59C148.197 41.21 148.807 39.25 150.027 37.71C151.247 36.17 153.027 35.4 155.367 35.4C157.707 35.4 159.487 36.17 160.707 37.71C161.927 39.25 162.537 41.13 162.537 43.35ZM150.957 42.09H159.807C159.727 40.65 159.237 39.56 158.337 38.82C157.457 38.08 156.467 37.71 155.367 37.71C154.267 37.71 153.277 38.08 152.397 38.82C151.517 39.56 151.037 40.65 150.957 42.09ZM179.706 35.7L170.496 57.9H167.736L170.316 51.24L163.986 35.7H166.926L171.726 47.79H171.846L176.766 35.7H179.706ZM205.415 51L203.165 45.63H192.995L190.745 51H187.775L196.655 30.06H199.505L208.385 51H205.415ZM194.075 42.99V43.14H202.085V42.99L198.125 33.42H198.065L194.075 42.99ZM219.343 35.4H219.583V38.01H219.343C218.163 38.01 217.063 38.24 216.043 38.7C215.023 39.16 214.223 39.8 213.643 40.62V51H210.913V35.7H213.313L213.643 37.62V38.07H213.703C215.143 36.29 217.023 35.4 219.343 35.4ZM222.785 36.54C224.525 35.78 226.385 35.4 228.365 35.4C230.365 35.4 231.895 35.98 232.955 37.14C234.015 38.3 234.545 39.69 234.545 41.31V51H232.145L231.815 49.08H231.725C230.285 50.56 228.435 51.3 226.175 51.3C224.815 51.3 223.655 50.89 222.695 50.07C221.755 49.25 221.285 48.13 221.285 46.71C221.285 45.29 221.865 44.14 223.025 43.26C224.205 42.38 225.925 41.94 228.185 41.94H231.815V41.7C231.815 40.38 231.485 39.43 230.825 38.85C230.185 38.27 229.065 37.98 227.465 37.98C225.865 37.98 224.365 38.32 222.965 39H222.785V36.54ZM231.815 46.65V44.13H228.545C225.525 44.13 224.015 44.93 224.015 46.53C224.015 48.11 225.075 48.9 227.195 48.9C228.075 48.9 228.925 48.69 229.745 48.27C230.565 47.83 231.255 47.29 231.815 46.65ZM244.405 51.3C242.745 51.3 241.435 50.74 240.475 49.62C239.515 48.5 239.035 47.1 239.035 45.42V35.7H241.765V45.12C241.765 47.56 242.865 48.78 245.065 48.78C246.805 48.78 248.445 47.82 249.985 45.9V35.7H252.715V51H250.315L249.985 49.08V48.63H249.925C248.305 50.41 246.465 51.3 244.405 51.3ZM257.496 29.52H260.436V32.46H257.496V29.52ZM257.586 54.03V35.7H260.316V54.09C260.316 55.33 259.996 56.32 259.356 57.06C258.736 57.82 257.746 58.2 256.386 58.2C255.526 58.2 254.776 58.07 254.136 57.81V55.56H254.376C254.856 55.72 255.356 55.8 255.876 55.8C256.416 55.8 256.836 55.69 257.136 55.47C257.436 55.25 257.586 54.77 257.586 54.03ZM264.241 43.35C264.241 40.97 264.941 39.05 266.341 37.59C267.741 36.13 269.591 35.4 271.891 35.4C274.211 35.4 276.071 36.13 277.471 37.59C278.891 39.05 279.601 40.97 279.601 43.35C279.601 45.73 278.891 47.65 277.471 49.11C276.071 50.57 274.211 51.3 271.891 51.3C269.591 51.3 267.741 50.57 266.341 49.11C264.941 47.65 264.241 45.73 264.241 43.35ZM268.441 47.46C269.441 48.36 270.601 48.81 271.921 48.81C273.241 48.81 274.391 48.36 275.371 47.46C276.371 46.54 276.871 45.17 276.871 43.35C276.871 41.51 276.371 40.14 275.371 39.24C274.391 38.34 273.241 37.89 271.921 37.89C270.601 37.89 269.441 38.34 268.441 39.24C267.461 40.14 266.971 41.51 266.971 43.35C266.971 45.17 267.461 46.54 268.441 47.46Z" fill="#E5E5E5"/>
<path d="M54.3774 66.1569L24.7974 15.5367L31.4847 3.98238L67.7247 66.1697L54.3774 66.1569Z" stroke="#3871FF" stroke-width="4"/>
<mask id="path-3-inside-1" fill="white">
<path fill-rule="evenodd" clip-rule="evenodd" d="M31.5636 40.9823L22.4849 25.4922L-1.87727e-05 64.5107L0.176591 64.5104L0.14159 64.5719L45.1751 64.5352L36.1575 48.9772L26.9453 48.9729L31.5636 40.9823Z"/>
</mask>
<path d="M22.4849 25.4922L25.9359 23.4696L22.4557 17.5316L19.0192 23.495L22.4849 25.4922ZM31.5636 40.9823L35.0268 42.9839L36.1918 40.9683L35.0146 38.9597L31.5636 40.9823ZM-1.87727e-05 64.5107L-3.46575 62.5135L-6.92852 68.5225L0.0068067 68.5107L-1.87727e-05 64.5107ZM0.176591 64.5104L3.65371 66.4877L7.0594 60.4986L0.169765 60.5104L0.176591 64.5104ZM0.14159 64.5719L-3.33553 62.5947L-6.73773 68.5776L0.144854 68.5719L0.14159 64.5719ZM45.1751 64.5352L45.1784 68.5352L52.1136 68.5295L48.6358 62.5293L45.1751 64.5352ZM36.1575 48.9772L39.6182 46.9713L38.463 44.9783L36.1593 44.9772L36.1575 48.9772ZM26.9453 48.9729L23.4821 46.9713L20.0152 52.9696L26.9434 52.9729L26.9453 48.9729ZM19.034 27.5148L28.1126 43.0049L35.0146 38.9597L25.9359 23.4696L19.034 27.5148ZM3.46571 66.5079L25.9506 27.4893L19.0192 23.495L-3.46575 62.5135L3.46571 66.5079ZM0.169765 60.5104L-0.00684424 60.5107L0.0068067 68.5107L0.183416 68.5104L0.169765 60.5104ZM3.61871 66.5492L3.65371 66.4877L-3.30053 62.5331L-3.33553 62.5947L3.61871 66.5492ZM45.1718 60.5352L0.138326 60.5719L0.144854 68.5719L45.1784 68.5352L45.1718 60.5352ZM32.6968 50.9831L41.7144 66.5411L48.6358 62.5293L39.6182 46.9713L32.6968 50.9831ZM26.9434 52.9729L36.1556 52.9772L36.1593 44.9772L26.9471 44.9729L26.9434 52.9729ZM28.1004 38.9807L23.4821 46.9713L30.4084 50.9745L35.0268 42.9839L28.1004 38.9807Z" fill="white" mask="url(#path-3-inside-1)"/>
</svg>
