<svg width="492" height="525" viewBox="0 0 492 525" fill="none" xmlns="http://www.w3.org/2000/svg">
<path d="M368.799 467.882L158.065 107.255L217.26 4.97797L487.086 467.997L368.799 467.882Z" stroke="#3871FF" stroke-width="5"/>
<mask id="path-2-inside-1" fill="white">
<path fill-rule="evenodd" clip-rule="evenodd" d="M217.838 282.842L155.181 175.936L0 445.224L1.21883 445.222L0.977244 445.647L311.779 445.394L249.543 338.019L185.964 337.989L217.838 282.842Z"/>
</mask>
<path d="M155.181 175.936L159.495 173.407L155.145 165.985L150.849 173.439L155.181 175.936ZM217.838 282.842L222.167 285.344L223.623 282.824L222.152 280.314L217.838 282.842ZM0 445.224L-4.33217 442.728L-8.6606 450.239L0.00851304 450.224L0 445.224ZM1.21883 445.222L5.56522 447.694L9.82237 440.208L1.21032 440.222L1.21883 445.222ZM0.977244 445.647L-3.36914 443.176L-7.62195 450.654L0.981324 450.647L0.977244 445.647ZM311.779 445.394L311.783 450.394L320.452 450.387L316.105 442.886L311.779 445.394ZM249.543 338.019L253.869 335.512L252.425 333.02L249.545 333.019L249.543 338.019ZM185.964 337.989L181.635 335.487L177.302 342.985L185.962 342.989L185.964 337.989ZM150.867 178.464L213.525 285.37L222.152 280.314L159.495 173.407L150.867 178.464ZM4.33217 447.721L159.513 178.432L150.849 173.439L-4.33217 442.728L4.33217 447.721ZM1.21032 440.222L-0.00851304 440.224L0.00851304 450.224L1.22734 450.222L1.21032 440.222ZM5.32363 448.119L5.56522 447.694L-3.12756 442.751L-3.36914 443.176L5.32363 448.119ZM311.775 440.394L0.973165 440.647L0.981324 450.647L311.783 450.394L311.775 440.394ZM245.217 340.526L307.453 447.901L316.105 442.886L253.869 335.512L245.217 340.526ZM185.962 342.989L249.541 343.019L249.545 333.019L185.967 332.989L185.962 342.989ZM213.509 280.34L181.635 335.487L190.293 340.491L222.167 285.344L213.509 280.34Z" fill="white" mask="url(#path-2-inside-1)"/>
</svg>
